<svg width="36" height="35" viewBox="0 0 36 35" fill="none" xmlns="http://www.w3.org/2000/svg">
<path d="M18.0016 34.4C14.8016 34.4 11.8349 33.6667 9.10156 32.2C6.4349 30.6667 4.30156 28.6 2.70156 26C1.16823 23.3333 0.401562 20.4333 0.401562 17.3C0.401562 14.1667 1.16823 11.3 2.70156 8.7C4.30156 6.03333 6.4349 3.93333 9.10156 2.4C11.8349 0.866662 14.8016 0.0999949 18.0016 0.0999949C21.2016 0.0999949 24.1349 0.866662 26.8016 2.4C29.4682 3.93333 31.5682 6.03333 33.1016 8.7C34.7016 11.3 35.5016 14.1667 35.5016 17.3C35.5016 20.4333 34.7016 23.3333 33.1016 26C31.5682 28.6 29.4682 30.6667 26.8016 32.2C24.1349 33.6667 21.2016 34.4 18.0016 34.4ZM18.0016 26.7C20.6682 26.7 22.8682 25.8 24.6016 24C26.4016 22.2 27.3016 19.9667 27.3016 17.3C27.3016 14.6333 26.4016 12.4 24.6016 10.6C22.8682 8.8 20.6682 7.9 18.0016 7.9C15.3349 7.9 13.1016 8.8 11.3016 10.6C9.56823 12.4 8.70156 14.6333 8.70156 17.3C8.70156 19.9667 9.56823 22.2 11.3016 24C13.1016 25.8 15.3349 26.7 18.0016 26.7Z" fill="white"/>
</svg>
